<?xml version="1.0" encoding="UTF-8"?>
<svg width="13px" height="16px" viewBox="0 0 13 16" version="1.1" xmlns="http://www.w3.org/2000/svg" xmlns:xlink="http://www.w3.org/1999/xlink">
    <title>arrow down@1.5x</title>
    <g id="Page-1" stroke="none" stroke-width="1" fill="none" fill-rule="evenodd">
        <g id="layout_desktop-copy-3" transform="translate(-520.000000, -186.000000)" fill="#1D1D1F" fill-rule="nonzero">
            <path d="M526.054688,201.78125 C526.289062,201.78125 526.523438,201.6875 526.695312,201.507812 L531.84375,196.351562 C532.03125,196.164062 532.117188,195.953125 532.117188,195.726562 C532.117188,195.234375 531.757812,194.875 531.28125,194.875 C531.039062,194.875 530.820312,194.976562 530.664062,195.132812 L528.882812,196.898438 L526.859375,199.15625 L526.921875,197.46875 L526.921875,187.820312 C526.921875,187.304688 526.5625,186.945312 526.054688,186.945312 C525.539062,186.945312 525.179688,187.304688 525.179688,187.820312 L525.179688,197.46875 L525.25,199.164062 L523.21875,196.898438 L521.445312,195.132812 C521.289062,194.976562 521.070312,194.875 520.820312,194.875 C520.34375,194.875 519.992188,195.234375 519.992188,195.726562 C519.992188,195.953125 520.078125,196.164062 520.265625,196.351562 L525.40625,201.507812 C525.578125,201.6875 525.8125,201.78125 526.054688,201.78125 Z" id="arrow-down"></path>
        </g>
    </g>
</svg>