<?xml version="1.0" encoding="UTF-8"?>
<svg width="8px" height="15px" viewBox="0 0 8 15" version="1.1" xmlns="http://www.w3.org/2000/svg" xmlns:xlink="http://www.w3.org/1999/xlink">
    <title>Chevron@1.5x</title>
    <g id="Page-1" stroke="none" stroke-width="1" fill="none" fill-rule="evenodd">
        <g id="layout_desktop-15&quot;inch" transform="translate(-1061.000000, -1352.000000)" fill="#8D8D8D" fill-rule="nonzero">
            <g id="Group-13" transform="translate(830.000000, 1048.000000)">
                <g id="Group-11" transform="translate(0.000000, 298.000000)">
                    <path d="M231.960938,20.2890625 C232.210938,20.2890625 232.429688,20.1953125 232.609375,20.0234375 L238.6875,14.0703125 C238.90625,13.8671875 239.007812,13.6328125 239.007812,13.359375 C239,13.0859375 238.898438,12.8515625 238.6875,12.640625 L232.609375,6.6953125 C232.429688,6.5234375 232.21875,6.4296875 231.960938,6.4296875 C231.4375,6.4296875 231.03125,6.8359375 231.03125,7.359375 C231.03125,7.609375 231.132812,7.84375 231.3125,8.0234375 L236.78125,13.359375 L231.3125,18.6953125 C231.132812,18.875 231.03125,19.1015625 231.03125,19.359375 C231.03125,19.8828125 231.4375,20.2890625 231.960938,20.2890625 Z" id="Chevron"></path>
                </g>
            </g>
        </g>
    </g>
</svg>