<?xml version="1.0" encoding="UTF-8"?>
<svg width="13px" height="15px" viewBox="0 0 13 15" version="1.1" xmlns="http://www.w3.org/2000/svg" xmlns:xlink="http://www.w3.org/1999/xlink">
    <title>arrow down@1.5x</title>
    <g id="Page-1" stroke="none" stroke-width="1" fill="none" fill-rule="evenodd">
        <g id="iPhone-11-Pro-Copy" transform="translate(-323.000000, -204.000000)" fill="#1D1D1F" fill-rule="nonzero">
            <g id="Group-2" transform="translate(20.000000, 199.000000)">
                <path d="M309.55127,19.6699219 C309.770996,19.6699219 309.990723,19.5820312 310.151855,19.4135742 L314.978516,14.5795898 C315.154297,14.4038086 315.234863,14.2060547 315.234863,13.9936523 C315.234863,13.5322266 314.897949,13.1953125 314.451172,13.1953125 C314.224121,13.1953125 314.019043,13.2905273 313.872559,13.4370117 L312.202637,15.0922852 L310.305664,17.2089844 L310.364258,15.6269531 L310.364258,6.58154297 C310.364258,6.09814453 310.027344,5.76123047 309.55127,5.76123047 C309.067871,5.76123047 308.730957,6.09814453 308.730957,6.58154297 L308.730957,15.6269531 L308.796875,17.2163086 L306.892578,15.0922852 L305.22998,13.4370117 C305.083496,13.2905273 304.878418,13.1953125 304.644043,13.1953125 C304.197266,13.1953125 303.867676,13.5322266 303.867676,13.9936523 C303.867676,14.2060547 303.948242,14.4038086 304.124023,14.5795898 L308.943359,19.4135742 C309.104492,19.5820312 309.324219,19.6699219 309.55127,19.6699219 Z" id="arrow-down"></path>
            </g>
        </g>
    </g>
</svg>