<?xml version="1.0" encoding="UTF-8"?>
<svg width="7px" height="13px" viewBox="0 0 7 13" version="1.1" xmlns="http://www.w3.org/2000/svg" xmlns:xlink="http://www.w3.org/1999/xlink">
    <title>Chevron @1.5x</title>
    <g id="Page-1" stroke="none" stroke-width="1" fill="none" fill-rule="evenodd">
        <g id="iPhone-11-Pro-Copy-3" transform="translate(-241.000000, -1268.000000)" fill="#8D8D8D" fill-rule="nonzero">
            <g id="Group-7" transform="translate(25.000000, 1265.000000)">
                <path d="M217.218262,15.0473633 C217.421387,15.0473633 217.599121,14.9711914 217.745117,14.831543 L222.683594,9.99462891 C222.861328,9.82958984 222.943848,9.63916016 222.943848,9.41699219 C222.9375,9.19482422 222.85498,9.00439453 222.683594,8.83300781 L217.745117,4.00244141 C217.599121,3.86279297 217.427734,3.78662109 217.218262,3.78662109 C216.792969,3.78662109 216.462891,4.11669922 216.462891,4.54199219 C216.462891,4.74511719 216.54541,4.93554688 216.691406,5.08154297 L221.134766,9.41699219 L216.691406,13.7524414 C216.54541,13.8984375 216.462891,14.0825195 216.462891,14.2919922 C216.462891,14.7172852 216.792969,15.0473633 217.218262,15.0473633 Z" id="Chevron-"></path>
            </g>
        </g>
    </g>
</svg>