<?xml version="1.0" encoding="UTF-8"?>
<svg width="107px" height="44px" viewBox="0 0 107 44" version="1.1" xmlns="http://www.w3.org/2000/svg" xmlns:xlink="http://www.w3.org/1999/xlink">
    <!-- Generator: Sketch 63.1 (92452) - https://sketch.com -->
    <title>APK button@1.5x</title>
    <desc>Created with Sketch.</desc>
    <g id="Page-1" stroke="none" stroke-width="1" fill="none" fill-rule="evenodd">
        <g id="iPhone-11-Pro-Copy-13" transform="translate(-245.000000, -597.000000)">
            <g id="Group-6" transform="translate(0.000000, 489.000000)">
                <g id="APK-button" transform="translate(246.031056, 109.000000)">
                    <path d="M10.2555408,-4.14336123e-16 L94.7134033,4.42098145e-15 C98.2794783,-2.56871754e-15 99.5726232,0.371302445 100.876327,1.06853082 C102.180031,1.76575919 103.203185,2.78891348 103.900413,4.09261719 C104.597642,5.39632089 104.968944,6.68946584 104.968944,10.2555408 L104.968944,31.7444592 C104.968944,35.3105342 104.597642,36.6036791 103.900413,37.9073828 C103.203185,39.2110865 102.180031,40.2342408 100.876327,40.9314692 C99.5726232,41.6286976 98.2794783,42 94.7134033,42 L10.2555408,42 C6.68946584,42 5.39632089,41.6286976 4.09261719,40.9314692 C2.78891348,40.2342408 1.76575919,39.2110865 1.06853082,37.9073828 C0.371302445,36.6036791 1.60494146e-16,35.3105342 -2.76224082e-16,31.7444592 L2.76224082e-16,10.2555408 C-1.60494146e-16,6.68946584 0.371302445,5.39632089 1.06853082,4.09261719 C1.76575919,2.78891348 2.78891348,1.76575919 4.09261719,1.06853082 C5.39632089,0.371302445 6.68946584,2.4074122e-16 10.2555408,-4.14336123e-16 Z" id="Rectangle-Copy" stroke="#525252" fill="#000000"></path>
                    <g id="Group-4" transform="translate(19.000000, 11.000000)" fill="#FFFFFF" fill-rule="nonzero">
                        <g id="Group-3" transform="translate(23.350612, 0.608818)">
                            <path d="M2.11890957,4.87054051 C3.53811692,4.87054051 4.37313891,3.99417616 4.37313891,2.50304877 C4.37313891,1.0151914 3.53481644,0.151907117 2.11890957,0.151907117 L0.438964133,0.151907117 L0.438964133,4.87054051 L2.11890957,4.87054051 Z M2.04959945,4.23615736 L1.17827215,4.23615736 L1.17827215,0.783020245 L2.04959945,0.783020245 C3.05624652,0.783020245 3.61732849,1.39778329 3.61732849,2.5095888 C3.61732849,3.62466433 3.059547,4.23615736 2.04959945,4.23615736 Z M6.48544752,4.93594083 C7.47889267,4.93594083 8.13238814,4.25904748 8.13238814,3.15051198 C8.13238814,2.0452465 7.47559218,1.36835315 6.48544752,1.36835315 C5.49530286,1.36835315 4.83850691,2.0452465 4.83850691,3.15051198 C4.83850691,4.25904748 5.49200238,4.93594083 6.48544752,4.93594083 Z M6.48544752,4.35387795 C5.92766603,4.35387795 5.56461299,3.91569577 5.56461299,3.15051198 C5.56461299,2.3885982 5.92766603,1.95041603 6.48544752,1.95041603 C7.04322901,1.95041603 7.40628206,2.3885982 7.40628206,3.15051198 C7.40628206,3.91569577 7.0465295,4.35387795 6.48544752,4.35387795 Z M10.102776,4.87054051 L10.8255816,2.29376773 L10.842084,2.29376773 L11.5714906,4.87054051 L12.3140991,4.87054051 L13.264638,1.43048345 L12.5583348,1.43048345 L11.9246422,4.13805688 L11.9081398,4.13805688 L11.1820337,1.43048345 L10.4955334,1.43048345 L9.77272779,4.13805688 L9.75952587,4.13805688 L9.12583328,1.43048345 L8.41292913,1.43048345 L9.36676848,4.87054051 L10.102776,4.87054051 Z M14.4132058,4.87054051 L14.4132058,2.86602057 C14.4132058,2.33300793 14.736653,1.97984618 15.2383263,1.97984618 C15.7333986,1.97984618 15.9776343,2.26433759 15.9776343,2.78100015 L15.9776343,4.87054051 L16.693839,4.87054051 L16.693839,2.64365947 C16.693839,1.85558556 16.2548748,1.37162316 15.489163,1.37162316 C14.9544848,1.37162316 14.5848308,1.61360436 14.3967034,2.00600631 L14.3802009,2.00600631 L14.3802009,1.43048345 L13.7003016,1.43048345 L13.7003016,4.87054051 L14.4132058,4.87054051 Z M18.1196473,4.87054051 L18.1196473,0.151907117 L17.4067431,0.151907117 L17.4067431,4.87054051 L18.1196473,4.87054051 Z M20.3441723,4.93594083 C21.3376174,4.93594083 21.9911129,4.25904748 21.9911129,3.15051198 C21.9911129,2.0452465 21.3343169,1.36835315 20.3441723,1.36835315 C19.3540276,1.36835315 18.6972317,2.0452465 18.6972317,3.15051198 C18.6972317,4.25904748 19.3507271,4.93594083 20.3441723,4.93594083 Z M20.3441723,4.35387795 C19.7863908,4.35387795 19.4233377,3.91569577 19.4233377,3.15051198 C19.4233377,2.3885982 19.7863908,1.95041603 20.3441723,1.95041603 C20.9019538,1.95041603 21.2650068,2.3885982 21.2650068,3.15051198 C21.2650068,3.91569577 20.9052543,4.35387795 20.3441723,4.35387795 Z M23.5588419,4.9294008 C24.0143085,4.9294008 24.4532726,4.6874196 24.654602,4.3048277 L24.6711044,4.3048277 L24.6711044,4.87054051 L25.3543043,4.87054051 L25.3543043,2.49977876 C25.3543043,1.80980534 24.8163257,1.36835315 23.9747027,1.36835315 C23.1165773,1.36835315 22.5818992,1.82615542 22.5422934,2.4474585 L23.2155918,2.4474585 C23.278301,2.14007697 23.5357386,1.943876 23.9482988,1.943876 C24.3839625,1.943876 24.6447006,2.17277713 24.6447006,2.55536903 L24.6447006,2.82024034 L23.6941617,2.87583062 C22.8690412,2.92161085 22.4036732,3.29112268 22.4036732,3.89280566 C22.4036732,4.51083873 22.8789426,4.9294008 23.5588419,4.9294008 Z M23.7568709,4.37022803 C23.3740149,4.37022803 23.1231783,4.17402706 23.1231783,3.87318556 C23.1231783,3.57888411 23.3641135,3.39249318 23.7898757,3.36306304 L24.6447006,3.31074278 L24.6447006,3.58215412 C24.6447006,4.03014634 24.2552437,4.37022803 23.7568709,4.37022803 Z M27.3477955,4.9294008 C27.8527693,4.9294008 28.2488271,4.67760955 28.453457,4.28520761 L28.466659,4.28520761 L28.466659,4.87054051 L29.1597602,4.87054051 L29.1597602,0.151907117 L28.4435556,0.151907117 L28.4435556,2.00273629 L28.4303537,2.00273629 C28.2356252,1.62341441 27.8395674,1.37489318 27.3411945,1.37489318 C26.4698672,1.37489318 25.8889824,2.0648666 25.8889824,3.15051198 C25.8889824,4.23615736 26.4698672,4.9294008 27.3477955,4.9294008 Z M27.535923,4.33098783 C26.9715405,4.33098783 26.6183889,3.87645558 26.6183889,3.15051198 C26.6183889,2.4278384 26.9715405,1.97003613 27.535923,1.97003613 C28.083803,1.97003613 28.4501566,2.43764845 28.4501566,3.15051198 C28.4501566,3.86991555 28.083803,4.33098783 27.535923,4.33098783 Z M31.7605402,4.87054051 L32.1962039,3.59523419 L34.0114691,3.59523419 L34.4471327,4.87054051 L35.229347,4.87054051 L33.5097958,0.151907117 L32.7110791,0.151907117 L30.9915279,4.87054051 L31.7605402,4.87054051 Z M33.8233416,3.00663127 L32.3843313,3.00663127 L33.093935,0.936711007 L33.1137379,0.936711007 L33.8233416,3.00663127 Z M36.4934317,4.87054051 L36.4934317,3.25842252 L37.5165812,3.25842252 C38.4506176,3.25842252 39.1074136,2.62403937 39.1074136,1.7018948 C39.1074136,0.783020245 38.4638196,0.151907117 37.5396845,0.151907117 L35.7541237,0.151907117 L35.7541237,4.87054051 L36.4934317,4.87054051 Z M37.3416556,2.64365947 L36.4934317,2.64365947 L36.4934317,0.76994018 L37.3449561,0.76994018 C37.9852496,0.76994018 38.3516032,1.11002187 38.3516032,1.70516482 C38.3516032,2.30030777 37.9852496,2.64365947 37.3416556,2.64365947 Z M40.4936161,4.87054051 L40.4936161,3.29766271 L40.9820875,2.74502997 L42.6323286,4.87054051 L43.5498626,4.87054051 L41.5035637,2.24144748 L43.3914395,0.151907117 L42.5135112,0.151907117 L40.5233205,2.39840825 L40.4936161,2.39840825 L40.4936161,0.151907117 L39.7543081,0.151907117 L39.7543081,4.87054051 L40.4936161,4.87054051 Z" id="DownloadAPK"></path>
                            <path d="M1.58243119,17.0468918 L2.24672825,15.0509928 L5.11454723,15.0509928 L5.77884429,17.0468918 L7.24785891,17.0468918 L4.48265492,9.32549168 L2.9110253,9.32549168 L0.145821304,17.0468918 L1.58243119,17.0468918 Z M4.7850991,13.9861566 L2.57077559,13.9861566 L3.66173498,10.6899803 L3.6995405,10.6899803 L4.7850991,13.9861566 Z M9.28935717,17.0468918 L9.28935717,13.7614173 C9.28935717,12.9480751 9.78082898,12.3969287 10.5531418,12.3969287 C11.3200539,12.3969287 11.6981091,12.8464073 11.6981091,13.6490477 L11.6981091,17.0468918 L13.0429056,17.0468918 L13.0429056,13.3815009 C13.0429056,12.0705217 12.3246006,11.2678813 11.060816,11.2678813 C10.1804874,11.2678813 9.5701982,11.6745524 9.26235323,12.3487703 L9.23534928,12.3487703 L9.23534928,11.3749 L7.9445607,11.3749 L7.9445607,17.0468918 L9.28935717,17.0468918 Z M16.2563751,17.1378577 C17.0934974,17.1378577 17.7523936,16.7151338 18.0656394,16.0783724 L18.0872425,16.0783724 L18.0872425,17.0468918 L19.4050351,17.0468918 L19.4050351,9.32549168 L18.0602386,9.32549168 L18.0602386,12.3273666 L18.0278339,12.3273666 C17.7253897,11.7013071 17.077295,11.2785832 16.2563751,11.2785832 C14.8143644,11.2785832 13.8800279,12.4129815 13.8800279,14.205545 C13.8800279,16.0088103 14.8143644,17.1378577 16.2563751,17.1378577 Z M16.6614342,16.0462668 C15.7919072,16.0462668 15.2572291,15.3399433 15.2572291,14.2108959 C15.2572291,13.0871994 15.797308,12.375525 16.6614342,12.375525 C17.5093581,12.375525 18.0656394,13.0979013 18.0656394,14.2108959 C18.0656394,15.3345924 17.5093581,16.0462668 16.6614342,16.0462668 Z M21.8785965,17.0468918 L21.8785965,13.7453645 C21.8785965,12.9480751 22.3376635,12.46114 23.0991748,12.46114 C23.3260079,12.46114 23.5312379,12.4932456 23.6446545,12.5360531 L23.6446545,11.3320925 C23.5474403,11.3106888 23.3962182,11.2785832 23.2233929,11.2785832 C22.5482943,11.2785832 22.0460209,11.6745524 21.8515925,12.3648231 L21.8245886,12.3648231 L21.8245886,11.3749 L20.5338,11.3749 L20.5338,17.0468918 L21.8785965,17.0468918 Z M26.8689255,17.1592614 C28.5485709,17.1592614 29.6395303,16.0516178 29.6395303,14.2108959 C29.6395303,12.375525 28.5377694,11.2571794 26.8689255,11.2571794 C25.2000817,11.2571794 24.0983208,12.3808759 24.0983208,14.2108959 C24.0983208,16.0516178 25.1892801,17.1592614 26.8689255,17.1592614 Z M26.8689255,16.1051271 C26.0156009,16.1051271 25.4647204,15.4202074 25.4647204,14.2108959 C25.4647204,13.0069354 26.0210017,12.3166647 26.8689255,12.3166647 C27.7222502,12.3166647 28.2731307,13.0069354 28.2731307,14.2108959 C28.2731307,15.4202074 27.7222502,16.1051271 26.8689255,16.1051271 Z M31.2057592,10.5187503 C31.6162191,10.5187503 31.9402665,10.1923433 31.9402665,9.79637402 C31.9402665,9.39505385 31.6162191,9.07399771 31.2057592,9.07399771 C30.7952992,9.07399771 30.4658511,9.39505385 30.4658511,9.79637402 C30.4658511,10.1923433 30.7952992,10.5187503 31.2057592,10.5187503 Z M31.8808578,17.0468918 L31.8808578,11.3749 L30.5360613,11.3749 L30.5360613,17.0468918 L31.8808578,17.0468918 Z M35.1483352,17.1378577 C35.9854575,17.1378577 36.6443537,16.7151338 36.9575995,16.0783724 L36.9792027,16.0783724 L36.9792027,17.0468918 L38.2969952,17.0468918 L38.2969952,9.32549168 L36.9521987,9.32549168 L36.9521987,12.3273666 L36.919794,12.3273666 C36.6173498,11.7013071 35.9692551,11.2785832 35.1483352,11.2785832 C33.7063245,11.2785832 32.771988,12.4129815 32.771988,14.205545 C32.771988,16.0088103 33.7063245,17.1378577 35.1483352,17.1378577 Z M35.5533943,16.0462668 C34.6838673,16.0462668 34.1491892,15.3399433 34.1491892,14.2108959 C34.1491892,13.0871994 34.6892681,12.375525 35.5533943,12.375525 C36.4013182,12.375525 36.9575995,13.0979013 36.9575995,14.2108959 C36.9575995,15.3345924 36.4013182,16.0462668 35.5533943,16.0462668 Z" id="Android"></path>
                        </g>
                        <g id="29544" transform="translate(0.000000, 0.000000)">
                            <path d="M3.67604208,9.78327764 C3.57977803,9.46520931 3.48344404,9.06766719 3.40322982,8.74970278 L3.38738978,8.74970278 C3.30696576,9.06766719 3.22647181,9.47345462 3.13852989,9.78327764 L2.81749818,10.9205426 L4.01294879,10.9205426 L3.67604208,9.78327764 Z" id="Path"></path>
                            <path d="M8.36339873,8.71789942 C8.11453884,8.71789942 7.94610297,8.74166533 7.85749668,8.76560447 L7.85749668,10.3478048 C7.961943,10.3715707 8.09041163,10.3796081 8.26702977,10.3796081 C8.91731042,10.3796081 9.31820668,10.0536756 9.31820668,9.50466904 C9.31820668,9.01192468 8.9730128,8.71789942 8.36339873,8.71789942 Z" id="Path"></path>
                            <path d="M15.994834,6.8255643 L15.5323609,6.8255643 L15.5323609,4.6145026 C15.5323609,4.60061028 15.530158,4.58682189 15.5283047,4.57275635 C15.5275704,4.48507189 15.4993521,4.39873856 15.4386844,4.3304895 L11.7252976,0.12797565 C11.7242136,0.126797747 11.7230947,0.126416661 11.7223604,0.125342691 C11.7002263,0.100779958 11.6744207,0.0803745282 11.6471464,0.0628445664 C11.6390341,0.0573707839 11.6308868,0.052901683 11.6224248,0.0482247169 C11.5988221,0.0355449422 11.5737158,0.0248398865 11.5479102,0.0171835198 C11.5409168,0.0153473776 11.5346577,0.0125065537 11.5276293,0.0106011231 C11.4996208,0.00412265899 11.4704584,0 11.4409462,0 L2.31484806,0 C1.89811177,0 1.55956161,0.335806164 1.55956161,0.748349217 L1.55956161,6.82539107 L1.09719343,6.82539107 C0.501041644,6.82539107 0.0176233504,7.30410454 0.0176233504,7.89485732 L0.0176233504,13.4567054 C0.0176233504,14.047181 0.501006677,14.5263795 1.09719343,14.5263795 L1.55956161,14.5263795 L1.55956161,18.333707 C1.55956161,18.7462154 1.89811177,19.0820562 2.31484806,19.0820562 L14.7770744,19.0820562 C15.1934261,19.0820562 15.5323959,18.7462501 15.5323959,18.333707 L15.5323959,14.5263795 L15.9948689,14.5263795 C16.5908459,14.5263795 17.0742992,14.0473542 17.0742992,13.4569132 L17.0742992,7.89506518 C17.0742992,7.30410454 16.5908109,6.8255643 15.994834,6.8255643 Z M2.31484806,0.748349217 L11.063338,0.748349217 L11.063338,4.576879 C11.063338,4.78360091 11.2326131,4.95103629 11.4409812,4.95103629 L14.7770744,4.95103629 L14.7770744,6.8255643 L2.31484806,6.8255643 L2.31484806,0.748349217 Z M10.5300568,9.47324676 C10.5300568,9.99775984 10.3534037,10.4431802 10.0327566,10.7453469 C9.61511118,11.1348516 8.99738477,11.3100472 8.2748274,11.3100472 C8.1145738,11.3100472 7.97030011,11.3018366 7.85770648,11.2861427 L7.85770648,13.2022438 L6.6460312,13.2022438 L6.6460312,7.9146738 C7.02332475,7.85127492 7.55317918,7.80360451 8.29905951,7.80360451 C9.05378649,7.80360451 9.59112384,7.94654645 9.95254239,8.23256891 C10.2975265,8.50303613 10.5300568,8.94835259 10.5300568,9.47324676 Z M2.25592872,13.2022091 L0.988026568,13.2022091 L2.64094998,7.84306425 L4.24593368,7.84306425 L5.92312416,13.2022091 L4.60679276,13.2022091 L4.18967183,11.8266961 L2.64091501,11.8266961 L2.25592872,13.2022091 Z M14.7770744,18.1309346 L2.31484806,18.1309346 L2.31484806,14.5263795 L14.7770744,14.5263795 L14.7770744,18.1309346 Z M14.3105452,13.2022091 L12.9862064,10.888566 L12.5207961,11.4530931 L12.5207961,13.2022091 L11.3089459,13.2022091 L11.3089459,7.84306425 L12.5207961,7.84306425 L12.5207961,10.2124499 L12.5447834,10.2124499 C12.6649998,10.0058319 12.7935034,9.81508101 12.9139646,9.62401829 L14.1420394,7.84292567 L15.6424369,7.84292567 L13.8525479,10.1249387 L15.7385611,13.2018627 L14.3105802,13.2018627 L14.3105802,13.2022091 L14.3105452,13.2022091 Z" id="Shape"></path>
                        </g>
                    </g>
                </g>
            </g>
        </g>
    </g>
</svg>