<?xml version="1.0" encoding="UTF-8"?>
<svg width="107px" height="44px" viewBox="0 0 107 44" version="1.1" xmlns="http://www.w3.org/2000/svg" xmlns:xlink="http://www.w3.org/1999/xlink">
    <!-- Generator: Sketch 63.1 (92452) - https://sketch.com -->
    <title>App Store Copy@1.5x</title>
    <desc>Created with Sketch.</desc>
    <g id="Page-1" stroke="none" stroke-width="1" fill="none" fill-rule="evenodd">
        <g id="iPhone-11-Pro-Copy-13" transform="translate(-25.000000, -597.000000)">
            <g id="Group-6" transform="translate(0.000000, 489.000000)">
                <g id="App-Store-Copy" transform="translate(26.000000, 109.000000)">
                    <path d="M10.2555408,-4.14336123e-16 L94.7134033,4.42098145e-15 C98.2794783,-2.56871754e-15 99.5726232,0.371302445 100.876327,1.06853082 C102.180031,1.76575919 103.203185,2.78891348 103.900413,4.09261719 C104.597642,5.39632089 104.968944,6.68946584 104.968944,10.2555408 L104.968944,31.7444592 C104.968944,35.3105342 104.597642,36.6036791 103.900413,37.9073828 C103.203185,39.2110865 102.180031,40.2342408 100.876327,40.9314692 C99.5726232,41.6286976 98.2794783,42 94.7134033,42 L10.2555408,42 C6.68946584,42 5.39632089,41.6286976 4.09261719,40.9314692 C2.78891348,40.2342408 1.76575919,39.2110865 1.06853082,37.9073828 C0.371302445,36.6036791 1.60494146e-16,35.3105342 -2.76224082e-16,31.7444592 L2.76224082e-16,10.2555408 C-1.60494146e-16,6.68946584 0.371302445,5.39632089 1.06853082,4.09261719 C1.76575919,2.78891348 2.78891348,1.76575919 4.09261719,1.06853082 C5.39632089,0.371302445 6.68946584,2.4074122e-16 10.2555408,-4.14336123e-16 Z" id="Rectangle" stroke="#525252" fill="#000000"></path>
                    <g id="Group-2" transform="translate(14.000000, 12.000000)" fill="#FFFFFF" fill-rule="nonzero">
                        <path d="M24.9212887,14.3548626 L21.2726693,14.3548626 L20.396458,16.9310418 L18.8510479,16.9310418 L22.3069613,7.39984257 L23.9125881,7.39984257 L27.3685015,16.9310418 L25.7967369,16.9310418 L24.9212887,14.3548626 Z M21.6505505,13.1660876 L24.542683,13.1660876 L23.1169588,8.98513936 L23.0770609,8.98513936 L21.6505505,13.1660876 Z M34.8320995,13.4569128 C34.8320995,15.6163457 33.6713461,17.0037423 31.9196789,17.0037423 C31.0142574,17.050903 30.1613999,16.5786919 29.7238859,15.7879733 L29.6907405,15.7879733 L29.6907405,19.2298737 L28.2582407,19.2298737 L28.2582407,9.98203157 L29.6448456,9.98203157 L29.6448456,11.1378257 L29.6711924,11.1378257 C30.1281434,10.3520643 30.9819206,9.88005652 31.8933321,9.90932336 C33.6645398,9.90933104 34.8320995,11.3034742 34.8320995,13.4569128 Z M33.3597019,13.4569128 C33.3597019,12.0500286 32.6295232,11.1250847 31.5154433,11.1250847 C30.4209345,11.1250847 29.6847357,12.0695085 29.6847357,13.4569128 C29.6847357,14.8570581 30.4209345,15.7947353 31.5154433,15.7947353 C32.6295309,15.7947353 33.3597019,14.8765457 33.3597019,13.4569128 Z M42.5132396,13.4569128 C42.5132396,15.6163457 41.3524862,17.0037423 39.600819,17.0037423 C38.6953975,17.050903 37.8425399,16.5786919 37.405026,15.7879733 L37.3718805,15.7879733 L37.3718805,19.2298737 L35.9393808,19.2298737 L35.9393808,9.98203157 L37.3259548,9.98203157 L37.3259548,11.1378257 L37.3523016,11.1378257 C37.8092559,10.3520648 38.6630364,9.88005977 39.5744491,9.90933104 C41.3457106,9.90933104 42.5132396,11.3034742 42.5132396,13.4569128 Z M41.0408497,13.4569128 C41.0408497,12.0500286 40.3106633,11.1250847 39.1965833,11.1250847 C38.1020746,11.1250847 37.3658758,12.0695085 37.3658758,13.4569128 C37.3658758,14.8570581 38.1020746,15.7947353 39.1965833,15.7947353 C40.310671,15.7947353 41.0408497,14.8765457 41.0408497,13.4569128 L41.0408497,13.4569128 Z M47.5898416,14.2754078 C47.6959841,15.2205838 48.6181212,15.8411709 49.8782261,15.8411709 C51.0856528,15.8411709 51.9543332,15.2205531 51.9543332,14.3683174 C51.9543332,13.6285174 51.4304117,13.1855522 50.1898703,12.8819784 L48.9493289,12.5844066 C47.1916416,12.1616659 46.375647,11.3431633 46.375647,10.014974 C46.375647,8.37047755 47.8149223,7.24091761 49.8586548,7.24091761 C51.8812976,7.24091761 53.2678948,8.37047755 53.3145682,10.014974 L51.8685019,10.014974 C51.7819384,9.0638036 50.9922906,8.48965976 49.8383128,8.48965976 C48.684335,8.48965976 47.8946949,9.07055787 47.8946949,9.91603926 C47.8946949,10.5898777 48.3990452,10.9863842 49.632811,11.2899196 L50.6874219,11.547764 C52.6513664,12.0102321 53.4673609,12.7957693 53.4673609,14.1898972 C53.4673609,15.9730557 52.0408813,17.0898747 49.7720682,17.0898747 C47.6492876,17.0898747 46.2160402,15.99929 46.1234488,14.2753387 L47.5898416,14.2754078 Z M56.5589519,8.33753512 L56.5589519,9.98203157 L57.8860646,9.98203157 L57.8860646,11.1115915 L56.5589519,11.1115915 L56.5589519,14.9424996 C56.5589519,15.5376354 56.8246781,15.8149674 57.408061,15.8149674 C57.5656109,15.8122319 57.7229058,15.8012153 57.879289,15.7819636 L57.879289,16.9047769 C57.6169994,16.9535762 57.350404,16.9756772 57.0836211,16.9707385 C55.6707003,16.9707385 55.1196766,16.4423088 55.1196766,15.0946319 L55.1196766,11.1115915 L54.1049636,11.1115915 L54.1049636,9.98203157 L55.1196612,9.98203157 L55.1196612,8.33753512 L56.5589519,8.33753512 Z M58.6546611,13.4569128 C58.6546611,11.2705011 59.947896,9.89659003 61.9645418,9.89659003 C63.9879554,9.89659003 65.2751701,11.2704704 65.2751701,13.4569128 C65.2751701,15.6493265 63.9947309,17.0172355 61.9645418,17.0172355 C59.9350695,17.0172355 58.6546611,15.6493189 58.6546611,13.4569128 Z M63.8155682,13.4569128 C63.8155682,11.9570806 63.1252874,11.0718718 61.9645341,11.0718718 C60.8037807,11.0718718 60.1142553,11.9638272 60.1142553,13.4569128 C60.1142553,14.9627394 60.8037807,15.8412093 61.9645341,15.8412093 C63.1252874,15.8412093 63.8155682,14.9627394 63.8155682,13.4569128 L63.8155682,13.4569128 Z M66.4562116,9.98203157 L67.8224744,9.98203157 L67.8224744,11.1647968 L67.8556199,11.1647968 C68.0461491,10.4033972 68.7467948,9.8793755 69.5342669,9.90931569 C69.6993497,9.90874175 69.8639771,9.92659338 70.0250661,9.96253628 L70.0250661,11.29672 C69.8166591,11.2333091 69.5992548,11.2041951 69.3814279,11.2105262 C68.9602867,11.1935143 68.5527154,11.3606359 68.2657303,11.66801 C67.9787452,11.975384 67.8410178,12.3923019 67.8887113,12.8092932 L67.8887113,16.9310265 L66.4562116,16.9310265 L66.4562116,9.98203157 Z M76.6297424,14.8900312 C76.4370364,16.1515067 75.2032628,17.0172279 73.6247304,17.0172279 C71.5945413,17.0172279 70.3344287,15.6628044 70.3344287,13.4898859 C70.3344287,11.3102208 71.6013168,9.89658235 73.5645136,9.89658235 C75.4953358,9.89658235 76.7095381,11.2172728 76.7095381,13.3242374 L76.7095381,13.8129397 L71.7804795,13.8129397 L71.7804795,13.8991334 C71.7344593,14.4164735 71.9138642,14.9285685 72.2730593,15.3051579 C72.6322544,15.6817474 73.1366195,15.8865345 73.6578605,15.8674281 C74.3530223,15.9322842 75.0084239,15.5348091 75.2695152,14.8900235 L76.6297424,14.8900312 Z M71.7872415,12.8160551 L75.276283,12.8160551 C75.3022794,12.3511828 75.1323366,11.8965938 74.8073984,11.5618033 C74.4824601,11.2270128 74.0319883,11.0423759 73.5645136,11.0523765 C73.093341,11.0495767 72.6405658,11.2343002 72.3068257,11.5654888 C71.9730856,11.8966773 71.7860343,12.3468887 71.7872415,12.8160551 L71.7872415,12.8160551 Z" id="App-Store"></path>
                        <path d="M21.4710178,0.225654097 C22.0791569,0.182199704 22.6748158,0.412584284 23.0940432,0.853396024 C23.5132706,1.29420776 23.7118777,1.89898268 23.6351993,2.50126054 C23.6351993,3.9643664 22.8410423,4.80538843 21.4710178,4.80538843 L19.8096835,4.80538843 L19.8096835,0.225654097 L21.4710178,0.225654097 Z M20.5240448,4.15771512 L21.3912221,4.15771512 C21.8258297,4.18358245 22.249008,4.01308082 22.5432563,3.69355215 C22.8375046,3.37402348 22.9714962,2.93948572 22.9080269,2.51059371 C22.9668785,2.08348157 22.8309572,1.65252959 22.5374385,1.33560667 C22.2439198,1.01868376 21.8235201,0.848955459 21.3912221,0.872843863 L20.5240448,0.872843863 L20.5240448,4.15771512 Z M24.4421521,3.07575745 C24.3826345,2.45627175 24.6809562,1.85674326 25.2120019,1.5286126 C25.7430476,1.20048195 26.415001,1.20048195 26.9460467,1.5286126 C27.4770923,1.85674326 27.7754141,2.45627175 27.7158965,3.07575745 C27.7765465,3.69590883 27.478497,4.29660013 26.9469805,4.62543719 C26.415464,4.95427425 25.7425846,4.95427425 25.2110681,4.62543719 C24.6795516,4.29660013 24.3815021,3.69590883 24.4421521,3.07575745 Z M27.0113169,3.07575745 C27.0113169,2.32659352 26.6733182,1.88848686 26.0801536,1.88848686 C25.4847227,1.88848686 25.1497687,2.32659352 25.1497687,3.07576512 C25.1497687,3.83093114 25.4847458,4.26566067 26.0801536,4.26566067 C26.6733336,4.26566067 27.0113169,3.82792242 27.0113169,3.07575745 L27.0113169,3.07575745 Z M32.0675924,4.80531935 L31.3569927,4.80531935 L30.6396174,2.25987206 L30.5854207,2.25987206 L29.8710517,4.80531935 L29.1672198,4.80531935 L28.210465,1.34918124 L28.9052629,1.34918124 L29.5270405,3.98641756 L29.578231,3.98641756 L30.2918446,1.34918124 L30.9490031,1.34918124 L31.6626167,3.98641756 L31.7168134,3.98641756 L32.3355771,1.34918124 L33.0205855,1.34918124 L32.0675924,4.80531935 Z M33.8252797,1.34918124 L34.4846967,1.34918124 L34.4846967,1.89821915 L34.5358872,1.89821915 C34.7138973,1.49398205 35.1298557,1.24670625 35.5716822,1.28246745 C35.913787,1.2568563 36.2490254,1.38753469 36.4827431,1.63760561 C36.7164608,1.88767653 36.823295,2.23000264 36.7730811,2.56792827 L36.7730811,4.80528097 L36.0880728,4.80528097 L36.0880728,2.73921048 C36.0880728,2.18380206 35.8456871,1.9075907 35.3390783,1.9075907 C35.1070339,1.89682924 34.8818409,1.987508 34.7225381,2.15585379 C34.5632353,2.32419959 34.4857104,2.55342272 34.5102881,2.78342794 L34.5102881,4.80531935 L33.8252797,4.80531935 L33.8252797,1.34918124 Z M37.8645837,2.71648882e-15 L38.549592,2.71648882e-15 L38.549592,4.80531167 L37.8645837,4.80531167 L37.8645837,2.71648882e-15 Z M39.5018297,3.07575745 C39.4423579,2.45623122 39.7407267,1.85668756 40.2718118,1.52855184 C40.8028968,1.20041612 41.4748848,1.20041612 42.0059699,1.52855184 C42.5370549,1.85668756 42.8354237,2.45623122 42.7759519,3.07575745 C42.8365248,3.69593104 42.5384208,4.29660536 42.0068778,4.62542793 C41.4753349,4.95425051 40.8024467,4.95425051 40.2709038,4.62542793 C39.7393609,4.29660536 39.4412568,3.69593104 39.5018297,3.07575745 L39.5018297,3.07575745 Z M42.0709946,3.07575745 C42.0709946,2.32659352 41.7329959,1.88848686 41.1398312,1.88848686 C40.5444003,1.88848686 40.2094464,2.32659352 40.2094464,3.07576512 C40.2094464,3.83093114 40.5444235,4.26566067 41.1398312,4.26566067 C41.7330036,4.26566067 42.0709946,3.82792242 42.0709946,3.07575745 L42.0709946,3.07575745 Z M43.4970965,3.82792242 C43.4970965,3.20580021 43.9623043,2.84714836 44.7880729,2.79617663 L45.7282703,2.74221153 L45.7282703,2.44389527 C45.7282703,2.07886523 45.4858846,1.8727448 45.0176706,1.8727448 C44.6352724,1.8727448 44.3703016,2.01253521 44.2942675,2.25688636 L43.6310889,2.25688636 C43.7010951,1.66324723 44.2619006,1.2824828 45.0492821,1.2824828 C45.9194733,1.2824828 46.4102725,1.71383519 46.4102725,2.44389527 L46.4102725,4.80532702 L45.7508555,4.80532702 L45.7508555,4.31962577 L45.6966588,4.31962577 C45.4726948,4.67432203 45.0744138,4.88162208 44.6540882,4.86227014 C44.35943,4.89278857 44.0655571,4.79776735 43.8451204,4.60069748 C43.6246837,4.4036276 43.4982574,4.12290245 43.4970965,3.82792242 L43.4970965,3.82792242 Z M45.7282703,3.53259954 L45.7282703,3.24365484 L44.8806643,3.29761994 C44.4026608,3.32947248 44.1858665,3.49137545 44.1858665,3.79606221 C44.1858665,4.10711948 44.4568574,4.28813397 44.8295047,4.28813397 C45.0501038,4.31036924 45.2703209,4.24250814 45.4397434,4.10008551 C45.6091659,3.95766288 45.7132867,3.75287406 45.7282703,3.53259954 Z M47.3105643,3.07575745 C47.3105643,1.98367605 47.8743837,1.29184668 48.7513427,1.29184668 C49.1941633,1.27153024 49.6089059,1.50779371 49.8157431,1.89819612 L49.8669335,1.89819612 L49.8669335,2.71648882e-15 L50.5519419,2.71648882e-15 L50.5519419,4.80531167 L49.8955388,4.80531167 L49.8955388,4.25926713 L49.8413421,4.25926713 C49.6188701,4.64643045 49.1990178,4.87870028 48.7513504,4.86227014 C47.8683636,4.86230852 47.3105643,4.1704638 47.3105643,3.07575745 Z M48.018181,3.07575745 C48.018181,3.8088109 48.365206,4.24991861 48.9455827,4.24991861 C49.5229301,4.24991861 49.8797523,3.80244807 49.8797523,3.07875849 C49.8797523,2.35844605 49.5191838,1.90459733 48.9455827,1.90459733 C48.3689445,1.90459733 48.0181578,2.34869841 48.0181578,3.07575745 L48.018181,3.07575745 Z M53.3860775,3.07575745 C53.32656,2.45627175 53.6248817,1.85674326 54.1559274,1.5286126 C54.686973,1.20048195 55.3589264,1.20048195 55.8899721,1.5286126 C56.4210178,1.85674326 56.7193395,2.45627175 56.659822,3.07575745 C56.7204719,3.69590883 56.4224225,4.29660013 55.8909059,4.62543719 C55.3593894,4.95427425 54.6865101,4.95427425 54.1549935,4.62543719 C53.623477,4.29660013 53.3254276,3.69590883 53.3860775,3.07575745 L53.3860775,3.07575745 Z M55.9552347,3.07575745 C55.9552347,2.32659352 55.6172437,1.88848686 55.024079,1.88848686 C54.4286481,1.88848686 54.0936942,2.32659352 54.0936942,3.07576512 C54.0936942,3.83093114 54.4286712,4.26566067 55.024079,4.26566067 C55.6172514,4.26566067 55.9552347,3.82792242 55.9552347,3.07575745 Z M57.5789374,1.34918124 L58.2383543,1.34918124 L58.2383543,1.89821915 L58.2895448,1.89821915 C58.467555,1.49398205 58.8835133,1.24670625 59.3253398,1.28246745 C59.6674446,1.2568563 60.002683,1.38753469 60.2364007,1.63760561 C60.4701184,1.88767653 60.5769526,2.23000264 60.5267388,2.56792827 L60.5267388,4.80528097 L59.8417304,4.80528097 L59.8417304,2.73921048 C59.8417304,2.18380206 59.5993447,1.9075907 59.0927359,1.9075907 C58.8606915,1.89682924 58.6354985,1.987508 58.4761957,2.15585379 C58.3168929,2.32419959 58.239368,2.55342272 58.2639457,2.78342794 L58.2639457,4.80531935 L57.5789374,4.80531935 L57.5789374,1.34918124 Z M64.3974249,0.488709977 L64.3974249,1.3649233 L65.1494333,1.3649233 L65.1494333,1.93945091 L64.3974249,1.93945091 L64.3974249,3.71661508 C64.3974249,4.07864408 64.5472269,4.23716992 64.8882241,4.23716992 C64.9755242,4.23689172 65.0627367,4.23163576 65.1494333,4.22142786 L65.1494333,4.78957729 C65.0264171,4.81149085 64.9017795,4.82314912 64.7768169,4.82443087 C64.0150267,4.82443087 63.7116611,4.55759106 63.7116611,3.8912514 L63.7116611,1.93942021 L63.1606451,1.93942021 L63.1606451,1.3648926 L63.7116611,1.3648926 L63.7116611,0.488709977 L64.3974249,0.488709977 Z M66.085106,2.71648882e-15 L66.7640942,2.71648882e-15 L66.7640942,1.90458966 L66.8182909,1.90458966 C67.0048517,1.49681471 67.42809,1.2492238 67.8766325,1.2854685 C68.2167946,1.26703799 68.547495,1.40059331 68.7786582,1.64975699 C69.0098214,1.89892067 69.1173704,2.23774079 69.0720113,2.57393037 L69.0720113,4.80531935 L68.3863169,4.80531935 L68.3863169,2.74219617 C68.3863169,2.19015722 68.1280908,1.9105764 67.644098,1.9105764 C67.4057815,1.89111463 67.1709885,1.97738303 67.0024888,2.14631854 C66.8339891,2.31525405 66.7489644,2.54963058 66.7701452,2.78678972 L66.7701452,4.80531935 L66.0851368,4.80531935 L66.085106,2.71648882e-15 Z M73.0661835,3.87213988 C72.8740995,4.52406491 72.2405143,4.94528095 71.5621744,4.87202546 C71.0993437,4.88419098 70.6545377,4.69316826 70.3457739,4.34964019 C70.0370101,4.00611212 69.8955032,3.54480784 69.9587983,3.08812237 C69.8971843,2.63016772 70.038161,2.16812427 70.3452055,1.82169398 C70.6522499,1.47526369 71.095149,1.2785352 71.5591605,1.28247513 C72.5249493,1.28247513 73.1075845,1.93948161 73.1075845,3.02477037 L73.1075845,3.26277404 L70.6566024,3.26277404 L70.6566024,3.30099708 C70.6349129,3.55745998 70.7228784,3.81113479 70.8988653,3.99963498 C71.0748523,4.18813517 71.3225312,4.29397022 71.5809902,4.29111199 C71.9161229,4.33117303 72.2423516,4.16564605 72.4067665,3.87211685 L73.0661835,3.87213988 Z M70.656587,2.758322 L72.4097573,2.758322 C72.4272187,2.52376488 72.3443902,2.29277232 72.1816835,2.12226841 C72.0189767,1.9517645 71.7915235,1.85760619 71.5553757,1.86299716 C71.3160286,1.86000295 71.0856107,1.95338255 70.9163905,2.12195356 C70.7471702,2.29052458 70.6534907,2.51999883 70.6566024,2.758322 L70.656587,2.758322 Z" id="Download-on-the"></path>
                        <path d="M11.406127,9.10574149 C11.4229749,7.8036476 12.1085351,6.60090895 13.2226205,5.91890697 C12.5166015,4.91489419 11.3764595,4.30115003 10.1461377,4.2628208 C8.85173882,4.1275358 7.59687553,5.03405892 6.93727353,5.03405892 C6.26490669,5.03405892 5.24934577,4.27625259 4.15575432,4.29865682 C2.71687313,4.3449454 1.4079642,5.13979051 0.707919232,6.39238146 C-0.782854817,8.96239741 0.3291285,12.7394556 1.75716517,14.8168625 C2.47164214,15.8341096 3.3066606,16.9704008 4.3992654,16.9301054 C5.46844485,16.8859494 5.86776263,16.2512397 7.15835363,16.2512397 C8.43696602,16.2512397 8.81160971,16.9301054 9.92638342,16.9044852 C11.0736628,16.8859417 11.7965032,15.8827174 12.485913,14.8558377 C12.9992635,14.131012 13.3942859,13.3299217 13.6563479,12.4822406 C12.2937284,11.9083817 11.4077174,10.5789053 11.406127,9.10574149 L11.406127,9.10574149 Z M9.30052039,2.89657735 C9.92606476,2.14884249 10.2342467,1.18775602 10.1596194,0.21741849 C9.20392674,0.317366744 8.32113442,0.772174255 7.68713904,1.49122052 C7.06109775,2.2006563 6.74394668,3.12878822 6.80553967,4.07119135 C7.77404703,4.08112072 8.69362435,3.64819217 9.30052039,2.89657735 L9.30052039,2.89657735 Z" id="Icon"></path>
                    </g>
                </g>
            </g>
        </g>
    </g>
</svg>