<?xml version="1.0" encoding="UTF-8"?>
<svg width="107px" height="44px" viewBox="0 0 107 44" version="1.1" xmlns="http://www.w3.org/2000/svg" xmlns:xlink="http://www.w3.org/1999/xlink">
    <!-- Generator: Sketch 63.1 (92452) - https://sketch.com -->
    <title>Group Copy@1.5x</title>
    <desc>Created with Sketch.</desc>
    <defs>
        <linearGradient x1="61.1288321%" y1="4.9481245%" x2="26.3005819%" y2="71.9074222%" id="linearGradient-1">
            <stop stop-color="#00A0FF" offset="0%"></stop>
            <stop stop-color="#00A1FF" offset="1%"></stop>
            <stop stop-color="#00BEFF" offset="26%"></stop>
            <stop stop-color="#00D2FF" offset="51%"></stop>
            <stop stop-color="#00DFFF" offset="76%"></stop>
            <stop stop-color="#00E3FF" offset="100%"></stop>
        </linearGradient>
        <linearGradient x1="107.684729%" y1="50%" x2="-130.640394%" y2="50%" id="linearGradient-2">
            <stop stop-color="#FFE000" offset="0%"></stop>
            <stop stop-color="#FFBD00" offset="41%"></stop>
            <stop stop-color="#FFA500" offset="78%"></stop>
            <stop stop-color="#FF9C00" offset="100%"></stop>
        </linearGradient>
        <linearGradient x1="86.219293%" y1="31.0740456%" x2="-50.1497903%" y2="135.254368%" id="linearGradient-3">
            <stop stop-color="#FF3A44" offset="0%"></stop>
            <stop stop-color="#C31162" offset="100%"></stop>
        </linearGradient>
        <linearGradient x1="-18.7537448%" y1="-11.3043424%" x2="42.1210306%" y2="35.2219028%" id="linearGradient-4">
            <stop stop-color="#32A071" offset="0%"></stop>
            <stop stop-color="#2DA771" offset="7%"></stop>
            <stop stop-color="#15CF74" offset="48%"></stop>
            <stop stop-color="#06E775" offset="80%"></stop>
            <stop stop-color="#00F076" offset="100%"></stop>
        </linearGradient>
    </defs>
    <g id="Page-1" stroke="none" stroke-width="1" fill="none" fill-rule="evenodd">
        <g id="iPhone-11-Pro-Copy-13" transform="translate(-135.000000, -597.000000)">
            <g id="Group-6" transform="translate(0.000000, 489.000000)">
                <g id="Group-Copy" transform="translate(136.015528, 109.000000)">
                    <path d="M10.2555408,-4.14336123e-16 L94.7134033,4.42098145e-15 C98.2794783,-2.56871754e-15 99.5726232,0.371302445 100.876327,1.06853082 C102.180031,1.76575919 103.203185,2.78891348 103.900413,4.09261719 C104.597642,5.39632089 104.968944,6.68946584 104.968944,10.2555408 L104.968944,31.7444592 C104.968944,35.3105342 104.597642,36.6036791 103.900413,37.9073828 C103.203185,39.2110865 102.180031,40.2342408 100.876327,40.9314692 C99.5726232,41.6286976 98.2794783,42 94.7134033,42 L10.2555408,42 C6.68946584,42 5.39632089,41.6286976 4.09261719,40.9314692 C2.78891348,40.2342408 1.76575919,39.2110865 1.06853082,37.9073828 C0.371302445,36.6036791 1.60494146e-16,35.3105342 -2.76224082e-16,31.7444592 L2.76224082e-16,10.2555408 C-1.60494146e-16,6.68946584 0.371302445,5.39632089 1.06853082,4.09261719 C1.76575919,2.78891348 2.78891348,1.76575919 4.09261719,1.06853082 C5.39632089,0.371302445 6.68946584,2.4074122e-16 10.2555408,-4.14336123e-16 Z" id="Rectangle-Copy" stroke="#525252" fill="#000000"></path>
                    <g id="Group-5" transform="translate(8.000000, 11.000000)" fill-rule="nonzero">
                        <path d="M45.0974488,11.5974518 C43.2793606,11.6060063 41.8116368,13.0850595 41.8173174,14.9028859 C41.8230311,16.7207123 43.2999969,18.1905394 45.118103,18.1877054 C46.9362091,18.1848632 48.4085774,16.7104322 48.4085976,14.8925968 C48.4213715,14.0121137 48.0761114,13.1641651 47.4518967,12.5429674 C46.827682,11.9217697 45.9779944,11.5805463 45.0974488,11.5974518 L45.0974488,11.5974518 Z M45.0974488,16.8929437 C44.27798,16.9502445 43.5067581,16.5008706 43.1526501,15.7597527 C42.798542,15.0186347 42.9335206,14.1364058 43.4930273,13.5350265 C44.0525339,12.9336472 44.922848,12.7353486 45.6877078,13.0349747 C46.4525677,13.3346009 46.9565145,14.0712523 46.958516,14.8925968 C46.9837511,15.406385 46.8003507,15.9085813 46.4499331,16.2852236 C46.0995156,16.6618659 45.6117951,16.8810163 45.0974488,16.8929437 L45.0974488,16.8929437 Z M37.8780588,11.5974518 C36.0589427,11.6017314 34.5873256,13.0789078 34.5901733,14.8977535 C34.5930293,16.7165992 36.0692714,18.1891549 37.888392,18.1877327 C39.7075125,18.1863085 41.1814481,16.7114448 41.1814531,14.8925968 C41.194227,14.0121137 40.848967,13.1641651 40.2247523,12.5429674 C39.6005375,11.9217697 38.75085,11.5805463 37.8703044,11.5974518 L37.8780588,11.5974518 Z M37.8780588,16.8929437 C37.0581623,16.9534759 36.2846918,16.5063428 35.9280882,15.7656913 C35.5714846,15.0250399 35.7043499,14.1416616 36.2630505,13.538636 C36.8217512,12.9356104 37.6925395,12.7357093 38.4583658,13.034672 C39.2241921,13.3336348 39.7291394,14.0705947 39.7313716,14.8925968 C39.7566067,15.406385 39.5732062,15.9085813 39.2227887,16.2852236 C38.8723712,16.6618659 38.3846507,16.8810163 37.8703044,16.8929437 L37.8780588,16.8929437 Z M29.2783773,12.6131318 L29.2783773,14.0087226 L32.6282983,14.0087226 C32.5757724,14.6660488 32.3024911,15.2863042 31.8528536,15.7687177 C31.1751327,16.458934 30.2372482,16.8306523 29.2706229,16.792151 C27.2149447,16.792151 25.5484884,15.1259449 25.5484884,13.0705754 C25.5484884,11.015206 27.2149447,9.3489999 29.2706229,9.3489999 C30.2149561,9.33360097 31.1268528,9.69328604 31.806327,10.3491733 L32.7911417,9.36450646 C31.8644229,8.42624929 30.5971903,7.90320975 29.2783773,7.91464265 C27.4009953,7.84159047 25.6340925,8.80136368 24.6736736,10.4158958 C23.7132547,12.0304279 23.7132547,14.0409434 24.6736736,15.6554756 C25.6340925,17.2700077 27.4009953,18.2297809 29.2783773,18.1567287 C30.6212653,18.2174015 31.9247689,17.694382 32.8531773,16.7223715 C33.6655919,15.8299079 34.0993503,14.6567119 34.062871,13.4504863 C34.0653732,13.1566277 34.0394038,12.8632176 33.9853265,12.5743654 L29.2783773,12.6131318 Z M64.4137758,13.6985913 C63.9997501,12.4807135 62.8767884,11.6447879 61.5911571,11.5974459 C60.7337972,11.5957758 59.9139828,11.9489915 59.3263774,12.5732284 C58.7387721,13.1974653 58.4357917,14.03704 58.4893784,14.8925968 C58.4703342,15.768172 58.8082137,16.6138475 59.4253806,17.2353085 C60.0425475,17.8567696 60.8859354,18.2005803 61.761755,18.1877418 C62.8635521,18.19368 63.8947267,17.6461328 64.5068291,16.7301247 L63.3824343,15.9547965 C63.0410418,16.5238426 62.4254242,16.871364 61.761755,16.8696838 C61.0743942,16.8958784 60.4408945,16.4992319 60.1643389,15.8695104 L64.5766192,14.047489 L64.4137758,13.6985913 Z M59.9161966,14.7995574 C59.8844437,14.3151046 60.0490502,13.8382628 60.3729077,13.4765304 C60.6967651,13.1147981 61.1526123,12.8986244 61.6376838,12.8767434 C62.1489887,12.8430566 62.6310799,13.1176243 62.8628864,13.5745388 L59.9161966,14.7995574 Z M56.3336422,17.9939098 L57.7837238,17.9939098 L57.7837238,8.30230677 L56.3336422,8.30230677 L56.3336422,17.9939098 Z M53.9607815,12.3340136 L53.9065004,12.3340136 C53.4644675,11.8398789 52.8325538,11.557817 52.1695043,11.5586834 C50.4093587,11.644027 49.0261129,13.0957578 49.0261129,14.857707 C49.0261129,16.6196563 50.4093587,18.071387 52.1695043,18.1567287 C52.8347032,18.1679118 53.4707128,17.8840216 53.9065004,17.3814005 L53.953027,17.3814005 L53.953027,17.8543507 C53.953027,19.1181357 53.2783902,19.7926713 52.1927676,19.7926713 C51.4532284,19.775364 50.7975318,19.312769 50.533316,18.6219256 L49.2693412,19.1491488 C49.7560735,20.3329285 50.9126874,21.1028662 52.1927676,21.0952791 C53.8909915,21.0952791 55.2945463,20.0950493 55.2945463,17.6605186 L55.2945463,11.7912839 L53.9607815,11.7912839 L53.9607815,12.3340136 Z M52.3013299,16.8929437 C51.2644732,16.8015788 50.4692459,15.933316 50.4692459,14.8925968 C50.4692459,13.8518776 51.2644732,12.9836148 52.3013299,12.89225 C52.8023599,12.9179579 53.271788,13.1448288 53.603185,13.5214261 C53.9345821,13.8980234 54.0998753,14.3924456 54.0615893,14.8925968 C54.1043433,15.3950478 53.9395789,15.8931045 53.6056048,16.2709658 C53.2716307,16.6488271 52.797545,16.8735712 52.2935754,16.8929437 L52.3013299,16.8929437 Z M71.2066712,8.30230677 L67.7404335,8.30230677 L67.7404335,17.9939098 L69.190515,17.9939098 L69.190515,14.3188539 L71.2144256,14.3188539 C72.3409017,14.3997701 73.4182192,13.8447476 74.0061274,12.8805991 C74.5940355,11.9164505 74.5940355,10.7047102 74.0061274,9.74056161 C73.4182192,8.77641305 72.3409017,8.22139056 71.2144256,8.30230677 L71.2066712,8.30230677 Z M71.2066712,12.9542762 L69.1827606,12.9542762 L69.1827606,9.65137791 L71.237689,9.65137791 C72.1563201,9.65137791 72.9010178,10.3959638 72.9010178,11.314457 C72.9010178,12.2329502 72.1563201,12.9775361 71.237689,12.9775361 L71.2066712,12.9542762 Z M80.1475483,11.5586854 C79.068682,11.4942083 78.0543803,12.0758976 77.5653176,13.0395623 L78.8525557,13.5745388 C79.1118689,13.0966793 79.6288726,12.8169311 80.1708117,12.8612368 C80.5426591,12.8178143 80.9163658,12.9255659 81.2079909,13.1602888 C81.499616,13.3950118 81.6847112,13.7370281 81.721701,14.1095153 L81.721701,14.210308 C81.2559632,13.9637529 80.7365701,13.8359215 80.2095839,13.8381504 C78.8215379,13.8381504 77.4179831,14.6134786 77.4179831,16.0168228 C77.4456569,16.621353 77.7167156,17.1889869 78.1694908,17.590582 C78.622266,17.9921771 79.218254,18.1935821 79.8218616,18.1489754 C80.5656907,18.2023824 81.2793634,17.8455997 81.6829288,17.2185815 L81.7294555,17.2185815 L81.7294555,17.9939098 L83.1252559,17.9939098 L83.1252559,14.2645809 C83.1252559,12.5666121 81.8380177,11.5819452 80.1863206,11.5819452 L80.1475483,11.5586854 Z M79.9691961,16.8696838 C79.4961748,16.8696838 78.8370468,16.6293321 78.8370468,16.0478359 C78.8370468,15.2725076 79.6590182,15.0166493 80.3879362,15.0166493 C80.8485829,15.0052845 81.3038378,15.1177424 81.7061921,15.3422872 C81.6059241,16.2102013 80.8815251,16.8716536 80.0079683,16.8929437 L79.9691961,16.8696838 Z M88.212173,11.7912839 L86.5527214,15.9935629 L86.5061947,15.9935629 L84.7847075,11.7912839 L83.2338182,11.7912839 L85.816049,17.6682719 L84.3427041,20.9324038 L85.8548212,20.9324038 L89.825098,11.7912839 L88.212173,11.7912839 Z M75.1769479,17.9939098 L76.6270295,17.9939098 L76.6270295,8.30230677 L75.1769479,8.30230677 L75.1769479,17.9939098 Z" id="Google-Play" fill="#FFFFFF"></path>
                        <path d="M29.2992109,2.48890819 C29.3256767,3.0337617 29.1168337,3.56513763 28.7214154,3.95903956 C28.2795558,4.39699406 27.6632668,4.63487792 27.0265487,4.61324803 C26.0499512,4.60595526 25.1730949,4.04079076 24.8014134,3.17907068 C24.4297319,2.3173506 24.6356583,1.32700636 25.3239779,0.665945281 C25.7712171,0.230290935 26.3875676,-0.00920121443 27.0265487,0.00438616138 C27.3522386,0.00335077128 27.6747088,0.0658878726 27.9741333,0.188152583 C28.2529038,0.295438038 28.5010705,0.464211322 28.6983036,0.680646594 L28.2899948,1.07023141 C27.9782524,0.716426981 27.5102674,0.523114568 27.0265487,0.548334771 C26.540314,0.546058915 26.0740947,0.732900695 25.7353961,1.06577628 C25.3966975,1.39865187 25.2147579,1.84882577 25.2315307,2.31249242 C25.2212089,3.01314946 25.6536885,3.65092907 26.3277499,3.92909174 C27.0018113,4.20725441 27.7850729,4.07117063 28.3131066,3.58415606 C28.5501642,3.33903857 28.6868887,3.02072916 28.6983036,2.68737592 L27.0265487,2.68737592 L27.0265487,2.15812863 L29.2683952,2.15812863 C29.288944,2.26729627 29.2992567,2.37799387 29.2992109,2.48890819 L29.2992109,2.48890819 Z M32.8276154,0.651243967 L30.7475516,0.651243967 L30.7475516,2.04786877 L32.6427209,2.04786877 L32.6427209,2.57711607 L30.7475516,2.57711607 L30.7475516,3.97374088 L32.8276154,3.97374088 L32.8276154,4.51768949 L30.1312364,4.51768949 L30.1312364,0.107295358 L32.8276154,0.107295358 L32.8276154,0.651243967 Z M35.3545077,4.51768949 L34.7613043,4.51768949 L34.7613043,0.651243967 L33.4670424,0.651243967 L33.4670424,0.107295358 L36.6795854,0.107295358 L36.6795854,0.651243967 L35.3545077,0.651243967 L35.3545077,4.51768949 Z M38.9445437,4.51768949 L38.9445437,0.107295358 L39.5377471,0.107295358 L39.5377471,4.51768949 L38.9445437,4.51768949 Z M42.1724945,4.51768949 L41.5792911,4.51768949 L41.5792911,0.651243967 L40.2850292,0.651243967 L40.2850292,0.107295358 L43.4590525,0.107295358 L43.4590525,0.651243967 L42.1724945,0.651243967 L42.1724945,4.51768949 Z M49.4758295,3.94433825 C48.5382522,4.83393524 47.0236733,4.83393524 46.086096,3.94433825 C45.1772382,3.02641312 45.1772382,1.59122107 46.086096,0.673295938 C46.5344641,0.242361245 47.1445524,0 47.7809628,0 C48.4173731,0 49.0274614,0.242361245 49.4758295,0.673295938 C50.3885658,1.58974632 50.3885658,3.02788787 49.4758295,3.94433825 L49.4758295,3.94433825 Z M46.5252206,3.57680541 C47.2195951,4.23657469 48.3423304,4.23657469 49.036705,3.57680541 C49.7186564,2.85950709 49.7186564,1.76547775 49.036705,1.04817944 C48.3423304,0.388410152 47.2195951,0.388410152 46.5252206,1.04817944 C45.8432691,1.76547775 45.8432691,2.85950709 46.5252206,3.57680541 L46.5252206,3.57680541 Z M50.9935057,4.51768949 L50.9935057,0.107295358 L51.717676,0.107295358 L53.9672265,3.54005212 L53.9672265,0.107295358 L54.5604299,0.107295358 L54.5604299,4.51768949 L53.9441147,4.51768949 L51.594413,0.923218272 L51.594413,4.51768949 L50.9935057,4.51768949 Z" id="GET-IT-ON" stroke="#FFFFFF" stroke-width="0.2" fill="#FFFFFF"></path>
                        <g id="Icon">
                            <path d="M0.446251557,0.415077502 C0.194642683,0.715707633 0.0676465063,1.10056641 0.0911498759,1.49120436 L0.0911498759,18.4940087 C0.0676465063,18.8846467 0.194642683,19.2695054 0.446251557,19.5701356 L0.500288769,19.6239419 L10.0648753,10.1079058 L10.0648753,9.88499384 L0.500288769,0.361271159 L0.446251557,0.415077502 Z" id="Shape" fill="url(#linearGradient-1)"></path>
                            <path d="M13.2299121,13.2824801 L10.0648753,10.1079058 L10.0648753,9.88499384 L13.2299121,6.702733 L13.2993885,6.7411661 L17.0897129,8.88573319 C18.1704572,9.4929762 18.1704572,10.4922369 17.0897129,11.1071665 L13.3148277,13.244047 L13.2299121,13.2824801 Z" id="Shape" fill="url(#linearGradient-2)"></path>
                            <path d="M13.3225473,13.2363603 L10.0648753,9.99260653 L0.446251557,19.5701356 C0.900718199,19.9679354 1.57518847,19.9873081 2.05192872,19.6162553 L13.3302669,13.2363603" id="Shape" fill="url(#linearGradient-3)"></path>
                            <path d="M13.3225473,6.74885272 L2.04420912,0.36895778 C1.56746887,-0.00209507225 0.892998597,0.0172776775 0.438531955,0.415077502 L10.0648753,9.99260653 L13.3225473,6.74885272 Z" id="Shape" fill="url(#linearGradient-4)"></path>
                            <path d="M13.2299121,13.1671808 L2.04420912,19.5086426 C1.58646648,19.8494185 0.958031405,19.8494185 0.500288769,19.5086426 L0.446251557,19.5624489 L0.500288769,19.6162553 C0.957170146,19.9596007 1.58732774,19.9596007 2.04420912,19.6162553 L13.3225473,13.2363603 L13.2299121,13.1671808 Z" id="Shape" fill="#000000" opacity="0.2"></path>
                            <path d="M0.446251557,19.4625229 C0.194642683,19.1618927 0.0676465063,18.777034 0.0911498759,18.386396 L0.0911498759,18.5016953 C0.0676465063,18.8923333 0.194642683,19.277192 0.446251557,19.5778222 L0.500288769,19.5240158 L0.446251557,19.4625229 Z M17.0897129,10.9918672 L13.2299121,13.1671808 L13.2993885,13.2363603 L17.0897129,11.0994799 C17.5274685,10.8947184 17.8218928,10.4725588 17.8616731,9.99260653 C17.7736924,10.426776 17.4885894,10.7958265 17.0897129,10.9918672 Z" id="Shape" fill="#000000" opacity="0.12"></path>
                            <path d="M2.04420912,0.476570465 L17.0897129,8.99334588 C17.4885894,9.18938656 17.7736924,9.55843704 17.8616731,9.99260653 C17.8218928,9.51265421 17.5274685,9.09049462 17.0897129,8.88573319 L2.04420912,0.36895778 C0.963464874,-0.238285233 0.0834302742,0.269031714 0.0834302742,1.49889098 L0.0834302742,1.61419029 C0.106589079,0.3766444 0.971184476,-0.130672547 2.04420912,0.476570465 L2.04420912,0.476570465 Z" id="Shape" fill="#FFFFFF" opacity="0.25"></path>
                        </g>
                    </g>
                </g>
            </g>
        </g>
    </g>
</svg>